<svg xmlns="http://www.w3.org/2000/svg" xmlns:xlink="http://www.w3.org/1999/xlink" width="1024" zoomAndPan="magnify" viewBox="0 0 768 767.999994" height="1024" preserveAspectRatio="xMidYMid meet" version="1.0"><defs><clipPath id="042d462526"><path d="M 231 250.507812 L 537.898438 250.507812 L 537.898438 517.507812 L 231 517.507812 Z M 231 250.507812 " clip-rule="nonzero"/></clipPath></defs><rect x="-76.8" width="921.6" fill="#ffffff" y="-76.799999" height="921.599993" fill-opacity="1"/><rect x="-76.8" width="921.6" fill="#bc3fde" y="-76.799999" height="921.599993" fill-opacity="1"/><g clip-path="url(#042d462526)"><path fill="#f9f9f9" d="M 537.171875 258.539062 C 537.222656 258.511719 537.265625 258.476562 537.316406 258.449219 L 387.648438 515.179688 C 386.800781 516.640625 385.246094 517.507812 383.601562 517.507812 C 383.304688 517.507812 383.007812 517.480469 382.710938 517.421875 C 380.753906 517.042969 379.25 515.472656 378.960938 513.503906 L 356.964844 364.105469 Z M 235.726562 250.507812 C 233.738281 250.507812 231.96875 251.757812 231.304688 253.632812 C 230.644531 255.503906 231.234375 257.59375 232.777344 258.839844 L 352.636719 355.773438 L 532.335938 250.507812 Z M 235.726562 250.507812 " fill-opacity="1" fill-rule="nonzero"/></g></svg>